<svg id="svg" version="1.1" xmlns="http://www.w3.org/2000/svg" xmlns:xlink="http://www.w3.org/1999/xlink" width="400" height="400" viewBox="0, 0, 400,400"><g id="svgg"><path id="path0" d="M157.940 71.499 C 151.707 71.640,152.117 71.403,150.826 75.600 C 150.319 77.250,149.747 79.050,149.556 79.600 C 148.432 82.834,144.898 97.362,143.961 102.600 C 143.725 103.920,143.366 105.900,143.164 107.000 C 138.152 134.278,138.009 169.599,142.797 197.748 C 144.013 204.895,146.137 214.644,147.601 219.800 C 147.851 220.680,148.147 221.850,148.258 222.400 C 148.369 222.950,148.606 223.760,148.785 224.200 C 148.963 224.640,149.331 225.810,149.602 226.800 C 149.874 227.790,150.361 229.320,150.686 230.200 C 151.010 231.080,151.538 232.610,151.858 233.600 C 152.178 234.590,152.596 235.760,152.787 236.200 C 152.977 236.640,153.362 237.563,153.643 238.251 C 154.657 240.743,151.832 240.589,199.000 240.720 C 250.169 240.861,245.471 241.415,247.538 235.000 C 248.035 233.460,248.594 231.840,248.780 231.400 C 249.619 229.422,252.650 219.130,253.375 215.800 C 253.518 215.140,253.790 213.970,253.978 213.200 C 254.679 210.326,255.921 204.486,256.422 201.700 C 257.360 196.489,257.648 194.735,258.212 190.800 C 261.069 170.861,261.608 145.555,259.562 127.400 C 258.375 116.860,256.966 107.013,255.957 102.200 C 254.628 95.865,253.216 89.687,252.802 88.400 C 252.625 87.850,252.080 85.870,251.590 84.000 C 250.729 80.718,248.805 74.568,247.928 72.300 L 247.503 71.200 235.198 71.200 L 222.893 71.200 222.652 72.100 C 222.519 72.595,222.408 75.652,222.405 78.894 L 222.400 84.787 221.233 86.094 L 220.066 87.400 200.236 87.511 C 175.267 87.651,177.200 88.480,177.200 77.620 L 177.200 71.200 170.300 71.288 C 166.505 71.336,160.943 71.431,157.940 71.499 M206.400 102.186 C 212.043 103.258,213.902 103.891,218.371 106.259 C 223.686 109.076,233.600 118.081,233.600 120.091 C 233.600 120.200,234.312 121.584,235.182 123.167 C 236.743 126.008,237.789 128.693,238.855 132.600 C 239.215 133.923,239.400 136.902,239.400 141.400 C 239.400 145.898,239.215 148.877,238.855 150.200 C 237.789 154.107,236.743 156.792,235.182 159.633 C 234.312 161.216,233.600 162.596,233.600 162.700 C 233.600 162.999,230.437 166.810,228.429 168.932 C 223.536 174.100,215.702 178.640,209.400 179.959 C 208.300 180.189,206.555 180.562,205.523 180.789 C 199.617 182.083,189.221 180.415,183.000 177.174 C 178.734 174.952,178.244 174.636,175.200 172.145 C 158.112 158.159,155.375 133.960,168.945 116.842 C 173.463 111.144,180.888 105.695,186.545 103.926 C 193.851 101.642,200.480 101.061,206.400 102.186 M200.500 116.689 C 199.785 116.778,199.200 117.019,199.200 117.225 C 199.200 117.431,198.840 117.600,198.400 117.600 C 197.960 117.600,197.600 117.780,197.600 118.000 C 197.600 118.220,197.240 118.400,196.800 118.400 C 196.360 118.400,196.000 118.550,196.000 118.732 C 196.000 118.915,195.505 119.320,194.900 119.632 C 193.556 120.326,188.000 125.898,188.000 126.553 C 188.000 126.812,187.640 127.283,187.200 127.600 C 186.760 127.917,186.400 128.497,186.400 128.888 C 186.400 129.280,186.220 129.600,186.000 129.600 C 185.780 129.600,185.600 129.949,185.600 130.376 C 185.600 130.803,185.420 131.264,185.200 131.400 C 184.980 131.536,184.800 131.999,184.800 132.429 C 184.800 132.859,184.642 133.523,184.449 133.905 C 183.236 136.307,182.595 145.579,183.600 146.200 C 183.820 146.336,184.000 146.966,184.000 147.600 C 184.000 148.234,184.180 148.864,184.400 149.000 C 184.620 149.136,184.800 149.578,184.800 149.983 C 184.800 152.635,192.609 162.800,194.646 162.800 C 194.951 162.800,195.200 162.953,195.200 163.140 C 195.200 163.777,200.193 165.951,202.242 166.205 C 208.670 167.004,218.464 160.552,222.285 153.000 C 224.475 148.672,224.914 146.734,224.914 141.400 C 224.914 137.022,224.683 135.491,223.585 132.600 C 221.270 126.504,217.021 121.758,211.400 118.991 C 208.405 117.516,204.475 116.359,202.816 116.464 C 202.257 116.499,201.215 116.601,200.500 116.689 M320.285 120.306 C 319.917 120.713,318.900 122.476,318.027 124.223 C 315.361 129.556,312.158 132.834,307.632 134.863 C 303.780 136.590,303.378 136.822,302.887 137.609 C 302.067 138.922,302.957 139.918,306.428 141.566 C 312.272 144.342,315.786 147.710,317.941 152.600 C 320.586 158.605,322.107 158.769,324.623 153.323 C 327.314 147.498,330.521 144.296,336.474 141.493 C 341.604 139.077,341.477 137.888,335.788 135.045 C 330.483 132.395,327.752 129.650,324.797 124.000 C 322.470 119.552,321.607 118.845,320.285 120.306 M174.923 262.897 C 174.694 263.394,174.327 264.250,174.107 264.800 C 173.887 265.350,173.503 266.295,173.254 266.900 C 173.004 267.505,172.599 268.495,172.353 269.100 C 172.108 269.705,171.748 270.513,171.553 270.895 C 171.359 271.277,171.200 271.774,171.200 271.999 C 171.200 272.224,170.860 273.172,170.445 274.104 C 170.030 275.037,168.486 278.950,167.013 282.800 C 165.540 286.650,164.146 290.250,163.914 290.800 C 163.683 291.350,163.355 292.160,163.187 292.600 C 161.693 296.509,161.576 296.641,158.657 297.679 C 154.549 299.141,145.494 306.205,146.067 307.502 C 146.140 307.668,147.405 310.233,148.879 313.202 C 152.177 319.848,153.748 324.505,155.017 331.400 C 155.158 332.166,155.485 332.201,162.682 332.213 C 171.647 332.229,176.150 332.913,182.200 335.179 C 186.117 336.646,192.646 339.975,193.200 340.787 C 193.310 340.948,193.598 341.152,193.839 341.240 C 194.237 341.385,195.790 342.609,198.736 345.100 C 200.075 346.232,199.845 346.281,202.200 344.362 C 212.178 336.232,224.032 332.000,236.827 332.000 C 239.565 332.000,242.369 332.162,243.057 332.359 C 244.548 332.787,245.200 331.827,245.200 329.205 C 245.200 328.348,245.380 327.536,245.600 327.400 C 245.820 327.264,246.000 326.771,246.000 326.305 C 246.000 325.519,246.486 323.718,247.215 321.800 C 247.382 321.360,247.745 320.370,248.021 319.600 C 248.907 317.126,251.984 310.840,253.606 308.191 L 255.179 305.620 252.696 303.610 C 249.905 301.352,246.197 299.301,241.423 297.376 L 238.200 296.075 236.662 292.138 C 235.816 289.972,234.985 287.840,234.815 287.400 C 234.646 286.960,234.320 286.150,234.090 285.600 C 233.861 285.050,232.561 281.720,231.200 278.200 C 229.839 274.680,228.563 271.395,228.363 270.900 C 227.516 268.799,227.219 268.048,226.113 265.200 L 224.947 262.200 200.143 262.097 L 175.338 261.994 174.923 262.897 " stroke="none" fill="#ffffff" fill-rule="evenodd"></path><path id="path1" d="M196.236 1.000 C 195.686 1.550,195.095 2.000,194.921 2.000 C 194.748 2.000,193.165 3.442,191.403 5.205 C 189.641 6.968,186.895 9.681,185.300 11.235 C 183.705 12.790,182.400 14.245,182.400 14.470 C 182.400 14.695,181.859 15.384,181.198 16.002 C 180.452 16.699,180.086 17.360,180.234 17.745 C 180.386 18.140,179.249 20.006,177.103 22.883 C 173.345 27.920,171.200 31.015,171.200 31.400 C 171.200 31.541,170.626 32.490,169.925 33.509 C 168.125 36.125,165.942 40.061,162.434 47.014 C 159.763 52.308,158.931 54.102,157.620 57.400 C 157.445 57.840,156.896 59.100,156.400 60.200 C 155.388 62.446,155.090 63.190,154.400 65.200 C 153.899 66.659,153.604 67.444,152.850 69.319 C 151.849 71.808,151.184 71.693,164.800 71.374 L 177.200 71.084 177.200 77.562 C 177.200 88.490,175.256 87.651,200.236 87.511 L 220.066 87.400 221.233 86.094 L 222.400 84.787 222.405 78.894 C 222.408 75.652,222.519 72.595,222.652 72.100 L 222.893 71.200 235.293 71.200 C 246.916 71.200,247.680 71.156,247.484 70.500 C 243.342 56.645,232.319 35.338,222.563 22.325 C 220.861 20.055,219.644 18.062,219.766 17.744 C 219.889 17.424,219.296 16.476,218.391 15.543 C 217.516 14.641,216.793 13.700,216.784 13.452 C 216.775 13.203,215.678 12.010,214.345 10.800 C 213.012 9.590,211.121 7.790,210.142 6.800 C 209.164 5.810,207.696 4.326,206.881 3.503 C 206.067 2.679,205.257 2.004,205.082 2.003 C 204.907 2.001,204.314 1.550,203.764 1.000 C 202.283 -0.480,197.717 -0.480,196.236 1.000 M293.052 42.976 C 291.830 44.842,288.094 47.311,282.771 49.770 C 277.340 52.279,277.775 54.260,284.400 57.192 C 290.389 59.843,293.552 63.016,297.017 69.850 C 300.096 75.924,302.002 76.794,303.783 72.937 C 306.276 67.541,306.990 66.227,308.569 64.134 C 310.949 60.981,314.517 58.315,317.400 57.537 C 318.494 57.242,318.469 57.229,317.111 57.380 C 314.334 57.690,308.677 62.403,306.644 66.100 C 306.070 67.145,305.150 68.816,304.600 69.814 C 304.050 70.812,303.600 71.847,303.600 72.114 C 303.599 72.864,301.783 74.800,301.081 74.800 C 300.280 74.800,299.390 73.476,297.183 69.000 C 296.206 67.020,295.271 65.340,295.104 65.267 C 294.937 65.193,294.800 64.964,294.800 64.758 C 294.800 63.316,286.438 56.800,284.588 56.800 C 284.265 56.800,284.000 56.620,284.000 56.400 C 284.000 56.180,283.640 56.000,283.200 56.000 C 282.760 56.000,282.400 55.820,282.400 55.600 C 282.400 55.380,282.106 55.200,281.747 55.200 C 281.006 55.200,279.600 53.738,279.600 52.968 C 279.600 52.180,281.231 51.073,285.400 49.031 C 289.069 47.234,294.574 42.853,293.954 42.224 C 293.819 42.087,293.413 42.426,293.052 42.976 M94.600 109.200 C 95.459 110.080,96.252 110.800,96.362 110.800 C 96.472 110.800,95.859 110.080,95.000 109.200 C 94.141 108.320,93.348 107.600,93.238 107.600 C 93.128 107.600,93.741 108.320,94.600 109.200 M69.600 122.200 C 70.150 122.514,70.780 122.772,71.000 122.772 C 71.220 122.772,70.950 122.514,70.400 122.200 C 69.850 121.886,69.220 121.628,69.000 121.628 C 68.780 121.628,69.050 121.886,69.600 122.200 M75.688 125.813 C 76.286 126.443,76.847 126.877,76.935 126.779 C 77.023 126.680,76.533 126.165,75.847 125.634 L 74.600 124.669 75.688 125.813 M136.565 136.701 C 131.030 140.409,123.873 147.831,121.160 152.676 C 120.690 153.514,119.967 154.678,119.553 155.262 C 119.139 155.846,118.800 156.521,118.800 156.762 C 118.800 157.003,118.664 157.200,118.498 157.200 C 118.331 157.200,117.943 157.785,117.635 158.500 C 117.327 159.215,116.500 161.060,115.798 162.600 C 109.503 176.404,107.382 195.156,110.391 210.400 C 110.630 211.610,110.973 213.410,111.152 214.400 C 112.191 220.129,117.939 233.876,120.172 235.973 C 121.420 237.146,122.824 236.991,128.200 235.086 C 134.282 232.931,143.079 231.200,147.946 231.200 C 150.882 231.200,151.053 231.085,150.442 229.519 C 150.245 229.013,149.864 227.790,149.596 226.800 C 149.328 225.810,148.963 224.640,148.785 224.200 C 148.606 223.760,148.369 222.950,148.258 222.400 C 148.147 221.850,147.851 220.680,147.601 219.800 C 145.487 212.358,142.708 198.529,141.561 189.748 C 139.870 176.810,139.400 168.441,139.400 151.300 C 139.400 142.225,139.400 134.800,139.400 134.801 C 139.400 134.802,138.124 135.657,136.565 136.701 M260.600 152.339 C 260.600 163.675,260.420 171.554,260.087 174.800 C 259.293 182.538,258.014 192.646,257.353 196.400 C 256.158 203.186,256.039 203.835,255.584 206.000 C 254.974 208.901,254.400 211.477,253.980 213.200 C 253.793 213.970,253.457 215.410,253.235 216.400 C 253.013 217.390,252.087 220.720,251.178 223.800 C 250.268 226.880,249.430 229.805,249.315 230.300 C 249.113 231.172,249.200 231.200,252.134 231.200 C 253.798 231.200,256.024 231.362,257.080 231.559 C 258.136 231.757,260.260 232.138,261.800 232.408 C 265.870 233.120,268.495 233.820,273.000 235.394 C 277.863 237.094,278.744 237.132,280.065 235.700 C 282.582 232.973,288.163 219.246,289.174 213.298 C 289.388 212.034,289.826 209.470,290.147 207.600 C 291.440 200.054,291.251 188.940,289.676 180.000 C 288.966 175.967,288.466 174.105,286.343 167.600 C 282.681 156.375,273.378 143.610,264.129 137.119 C 260.181 134.348,260.600 132.540,260.600 152.339 M170.068 250.192 L 170.200 259.583 171.309 260.692 L 172.418 261.800 200.000 261.800 L 227.582 261.800 228.691 260.692 L 229.800 259.583 229.927 250.192 L 230.053 240.800 199.994 240.800 L 169.936 240.800 170.068 250.192 " stroke="none" fill="#ee333d" fill-rule="evenodd"></path><path id="path2" d="M175.600 18.000 C 175.600 18.231,174.341 18.400,172.624 18.400 C 170.987 18.400,169.536 18.580,169.400 18.800 C 169.264 19.020,168.263 19.200,167.176 19.200 C 166.089 19.200,165.200 19.380,165.200 19.600 C 165.200 19.820,164.210 20.000,163.000 20.000 C 161.790 20.000,160.800 20.180,160.800 20.400 C 160.800 20.620,160.080 20.800,159.200 20.800 C 158.320 20.800,157.600 20.980,157.600 21.200 C 157.600 21.420,156.880 21.600,156.000 21.600 C 155.120 21.600,154.400 21.780,154.400 22.000 C 154.400 22.220,153.691 22.400,152.824 22.400 C 151.957 22.400,151.136 22.580,151.000 22.800 C 150.864 23.020,150.133 23.200,149.376 23.200 C 148.619 23.200,148.000 23.380,148.000 23.600 C 148.000 23.820,147.370 24.000,146.600 24.000 C 145.830 24.000,145.200 24.160,145.200 24.356 C 145.200 24.552,144.615 24.802,143.900 24.912 C 143.185 25.021,142.150 25.239,141.600 25.396 C 141.050 25.553,140.103 25.773,139.495 25.887 C 138.887 26.000,138.292 26.251,138.171 26.446 C 138.051 26.641,137.524 26.800,137.000 26.800 C 136.476 26.800,135.936 26.980,135.800 27.200 C 135.664 27.420,135.209 27.600,134.789 27.600 C 134.368 27.600,133.383 27.960,132.600 28.400 C 131.817 28.840,130.832 29.200,130.411 29.200 C 129.991 29.200,129.536 29.380,129.400 29.600 C 129.264 29.820,128.803 30.000,128.376 30.000 C 127.949 30.000,127.600 30.180,127.600 30.400 C 127.600 30.620,127.150 30.800,126.600 30.800 C 126.050 30.800,125.600 30.980,125.600 31.200 C 125.600 31.420,125.240 31.600,124.800 31.600 C 124.360 31.600,124.000 31.780,124.000 32.000 C 124.000 32.220,123.561 32.400,123.024 32.400 C 122.487 32.400,121.936 32.580,121.800 32.800 C 121.664 33.020,121.203 33.200,120.776 33.200 C 120.349 33.200,120.000 33.380,120.000 33.600 C 120.000 33.820,119.640 34.000,119.200 34.000 C 118.760 34.000,118.400 34.180,118.400 34.400 C 118.400 34.620,118.040 34.800,117.600 34.800 C 117.160 34.800,116.800 34.980,116.800 35.200 C 116.800 35.420,116.440 35.600,116.000 35.600 C 115.560 35.600,115.200 35.780,115.200 36.000 C 115.200 36.220,114.840 36.400,114.400 36.400 C 113.960 36.400,113.600 36.580,113.600 36.800 C 113.600 37.020,113.240 37.200,112.800 37.200 C 112.360 37.200,112.000 37.380,112.000 37.600 C 112.000 37.820,111.640 38.000,111.200 38.000 C 110.760 38.000,110.400 38.146,110.400 38.325 C 110.400 38.504,109.770 38.898,109.000 39.200 C 108.230 39.502,107.600 39.896,107.600 40.075 C 107.600 40.254,107.240 40.400,106.800 40.400 C 106.360 40.400,106.000 40.548,106.000 40.729 C 106.000 40.910,104.605 41.753,102.900 42.602 C 101.195 43.451,99.740 44.293,99.667 44.473 C 99.593 44.653,99.312 44.800,99.042 44.800 C 98.772 44.800,98.202 45.115,97.775 45.500 C 97.349 45.885,96.505 46.455,95.900 46.768 C 95.295 47.080,94.800 47.485,94.800 47.668 C 94.800 47.850,94.530 48.000,94.200 48.000 C 93.870 48.000,93.600 48.180,93.600 48.400 C 93.600 48.620,93.357 48.800,93.059 48.800 C 92.762 48.800,91.954 49.340,91.263 50.000 C 90.572 50.660,89.775 51.200,89.492 51.200 C 89.209 51.200,88.717 51.560,88.400 52.000 C 88.083 52.440,87.620 52.800,87.371 52.800 C 87.122 52.800,86.354 53.340,85.663 54.000 C 84.972 54.660,84.212 55.200,83.972 55.200 C 83.733 55.200,82.846 55.920,82.000 56.800 C 81.154 57.680,80.252 58.400,79.995 58.400 C 79.443 58.400,76.674 60.736,72.765 64.500 C 71.223 65.985,69.806 67.200,69.617 67.200 C 69.429 67.200,67.355 69.135,65.010 71.500 C 58.598 77.966,58.399 78.177,58.400 78.497 C 58.400 78.661,57.140 80.069,55.600 81.628 C 54.060 83.186,52.800 84.642,52.800 84.862 C 52.800 85.082,52.080 85.954,51.200 86.800 C 50.320 87.646,49.600 88.546,49.600 88.800 C 49.600 89.054,48.880 89.954,48.000 90.800 C 47.120 91.646,46.400 92.516,46.400 92.735 C 46.400 92.954,46.256 93.193,46.081 93.267 C 45.905 93.340,44.870 94.750,43.781 96.400 C 42.691 98.050,41.485 99.749,41.100 100.175 C 40.715 100.602,40.400 101.187,40.400 101.475 C 40.400 101.764,40.220 102.000,40.000 102.000 C 39.780 102.000,39.600 102.320,39.600 102.712 C 39.600 103.103,39.240 103.683,38.800 104.000 C 38.360 104.317,38.000 104.857,38.000 105.200 C 38.000 105.543,37.640 106.083,37.200 106.400 C 36.760 106.717,36.400 107.282,36.400 107.655 C 36.400 108.028,36.265 108.393,36.100 108.467 C 35.645 108.669,34.000 111.110,34.000 111.584 C 34.000 111.813,33.820 112.000,33.600 112.000 C 33.380 112.000,33.200 112.278,33.200 112.617 C 33.200 112.956,32.840 113.620,32.400 114.092 C 31.960 114.564,31.600 115.187,31.600 115.475 C 31.600 115.764,31.420 116.000,31.200 116.000 C 30.980 116.000,30.800 116.234,30.800 116.520 C 30.800 117.256,29.859 119.193,29.500 119.197 C 29.335 119.199,29.200 119.560,29.200 120.000 C 29.200 120.440,29.020 120.800,28.800 120.800 C 28.580 120.800,28.400 121.160,28.400 121.600 C 28.400 122.040,28.220 122.400,28.000 122.400 C 27.780 122.400,27.600 122.634,27.600 122.920 C 27.600 123.623,26.666 125.593,26.332 125.597 C 26.184 125.599,25.945 126.138,25.801 126.795 C 25.657 127.453,25.372 128.094,25.169 128.219 C 24.966 128.345,24.800 128.887,24.800 129.424 C 24.800 129.961,24.620 130.400,24.400 130.400 C 24.180 130.400,24.000 130.850,24.000 131.400 C 24.000 131.950,23.820 132.400,23.600 132.400 C 23.380 132.400,23.200 132.760,23.200 133.200 C 23.200 133.640,23.020 134.000,22.800 134.000 C 22.580 134.000,22.400 134.439,22.400 134.976 C 22.400 135.513,22.220 136.064,22.000 136.200 C 21.780 136.336,21.600 136.797,21.600 137.224 C 21.600 137.651,21.420 138.000,21.200 138.000 C 20.980 138.000,20.800 138.540,20.800 139.200 C 20.800 139.860,20.620 140.400,20.400 140.400 C 20.180 140.400,20.000 140.760,20.000 141.200 C 20.000 141.640,19.820 142.000,19.600 142.000 C 19.380 142.000,19.200 142.439,19.200 142.976 C 19.200 143.513,19.020 144.064,18.800 144.200 C 18.580 144.336,18.400 144.887,18.400 145.424 C 18.400 145.961,18.220 146.400,18.000 146.400 C 17.780 146.400,17.600 146.940,17.600 147.600 C 17.600 148.260,17.420 148.800,17.200 148.800 C 16.980 148.800,16.800 149.340,16.800 150.000 C 16.800 150.660,16.620 151.200,16.400 151.200 C 16.180 151.200,16.000 151.729,16.000 152.376 C 16.000 153.023,15.820 153.664,15.600 153.800 C 15.380 153.936,15.200 154.667,15.200 155.424 C 15.200 156.181,15.020 156.800,14.800 156.800 C 14.580 156.800,14.400 157.430,14.400 158.200 C 14.400 158.970,14.220 159.600,14.000 159.600 C 13.780 159.600,13.600 160.320,13.600 161.200 C 13.600 162.080,13.420 162.800,13.200 162.800 C 12.980 162.800,12.800 163.520,12.800 164.400 C 12.800 165.280,12.638 166.000,12.440 166.000 C 12.093 166.000,11.823 167.463,11.350 171.900 C 11.227 173.055,10.979 174.000,10.800 174.000 C 10.621 174.000,10.374 174.945,10.252 176.100 C 9.878 179.627,9.246 184.502,8.916 186.400 C 8.508 188.747,8.508 228.453,8.916 230.800 C 9.246 232.698,9.878 237.573,10.252 241.100 C 10.374 242.255,10.621 243.200,10.800 243.200 C 10.979 243.200,11.225 244.145,11.345 245.300 C 11.731 249.004,12.075 250.799,12.442 251.026 C 12.639 251.148,12.800 251.957,12.800 252.824 C 12.800 253.691,12.980 254.400,13.200 254.400 C 13.420 254.400,13.600 255.019,13.600 255.776 C 13.600 256.533,13.780 257.264,14.000 257.400 C 14.220 257.536,14.400 258.267,14.400 259.024 C 14.400 259.781,14.580 260.400,14.800 260.400 C 15.020 260.400,15.200 261.019,15.200 261.776 C 15.200 262.533,15.380 263.264,15.600 263.400 C 15.820 263.536,16.000 264.177,16.000 264.824 C 16.000 265.471,16.180 266.000,16.400 266.000 C 16.620 266.000,16.800 266.540,16.800 267.200 C 16.800 267.860,16.980 268.400,17.200 268.400 C 17.420 268.400,17.600 268.940,17.600 269.600 C 17.600 270.260,17.780 270.800,18.000 270.800 C 18.220 270.800,18.400 271.239,18.400 271.776 C 18.400 272.313,18.580 272.864,18.800 273.000 C 19.020 273.136,19.200 273.687,19.200 274.224 C 19.200 274.761,19.380 275.200,19.600 275.200 C 19.820 275.200,20.000 275.560,20.000 276.000 C 20.000 276.440,20.180 276.800,20.400 276.800 C 20.620 276.800,20.800 277.340,20.800 278.000 C 20.800 278.660,20.980 279.200,21.200 279.200 C 21.420 279.200,21.600 279.549,21.600 279.976 C 21.600 280.403,21.780 280.864,22.000 281.000 C 22.220 281.136,22.400 281.687,22.400 282.224 C 22.400 282.761,22.580 283.200,22.800 283.200 C 23.020 283.200,23.200 283.560,23.200 284.000 C 23.200 284.440,23.380 284.800,23.600 284.800 C 23.820 284.800,24.000 285.250,24.000 285.800 C 24.000 286.350,24.180 286.800,24.400 286.800 C 24.620 286.800,24.800 287.239,24.800 287.776 C 24.800 288.313,24.966 288.855,25.169 288.981 C 25.372 289.106,25.657 289.747,25.801 290.405 C 25.945 291.062,26.184 291.601,26.332 291.603 C 26.666 291.607,27.600 293.577,27.600 294.280 C 27.600 294.566,27.780 294.800,28.000 294.800 C 28.220 294.800,28.400 295.160,28.400 295.600 C 28.400 296.040,28.580 296.400,28.800 296.400 C 29.020 296.400,29.200 296.760,29.200 297.200 C 29.200 297.640,29.380 298.000,29.600 298.000 C 29.820 298.000,30.000 298.360,30.000 298.800 C 30.000 299.240,30.180 299.600,30.400 299.600 C 30.620 299.600,30.800 299.960,30.800 300.400 C 30.800 300.840,30.980 301.200,31.200 301.200 C 31.420 301.200,31.600 301.436,31.600 301.725 C 31.600 302.013,31.960 302.636,32.400 303.108 C 32.840 303.580,33.200 304.244,33.200 304.583 C 33.200 304.922,33.336 305.200,33.502 305.200 C 33.669 305.200,34.060 305.785,34.372 306.500 C 34.684 307.215,35.268 308.091,35.670 308.447 C 36.071 308.803,36.400 309.348,36.400 309.659 C 36.400 309.969,36.760 310.483,37.200 310.800 C 37.640 311.117,38.000 311.657,38.000 312.000 C 38.000 312.343,38.360 312.883,38.800 313.200 C 39.240 313.517,39.600 314.097,39.600 314.488 C 39.600 314.880,39.736 315.200,39.902 315.200 C 40.069 315.200,40.444 315.740,40.736 316.400 C 41.247 317.554,42.000 318.031,42.000 317.200 C 42.000 316.980,41.820 316.800,41.600 316.800 C 41.380 316.800,41.200 316.440,41.200 316.000 C 41.200 315.560,41.020 315.200,40.800 315.200 C 38.604 315.200,47.815 303.940,52.800 300.530 C 53.350 300.154,53.890 299.745,54.000 299.622 C 54.499 299.063,58.706 296.000,58.975 296.000 C 59.141 296.000,59.754 295.661,60.338 295.247 C 60.922 294.833,62.050 294.130,62.845 293.684 C 63.640 293.239,64.630 292.681,65.045 292.444 C 82.176 282.655,111.424 282.655,128.555 292.444 C 128.970 292.681,129.926 293.222,130.680 293.645 C 131.434 294.069,132.506 294.713,133.062 295.077 C 133.617 295.441,134.611 296.028,135.270 296.382 C 137.332 297.488,140.192 300.100,142.235 302.743 C 145.824 307.389,145.530 307.123,146.057 306.200 C 147.918 302.942,154.065 298.708,160.300 296.387 C 161.015 296.121,161.600 295.652,161.600 295.346 C 161.600 295.040,161.759 294.477,161.953 294.095 C 162.560 292.902,163.776 289.805,168.274 278.000 C 171.515 269.492,173.305 264.916,173.630 264.305 C 173.834 263.923,174.000 263.338,174.000 263.005 C 174.000 262.672,174.191 262.400,174.424 262.400 C 174.657 262.400,174.736 262.220,174.600 262.000 C 174.464 261.780,173.855 261.600,173.246 261.600 C 170.505 261.600,170.215 260.580,170.068 250.406 L 169.935 241.275 162.534 241.138 L 155.134 241.000 153.967 239.694 C 153.325 238.975,152.800 238.041,152.800 237.617 C 152.800 237.194,152.620 236.736,152.400 236.600 C 152.180 236.464,152.000 236.018,152.000 235.610 C 152.000 235.201,151.646 234.041,151.214 233.033 L 150.428 231.200 147.760 231.200 C 143.077 231.200,134.179 232.968,128.200 235.086 C 122.824 236.991,121.420 237.146,120.172 235.973 C 117.939 233.876,112.191 220.129,111.152 214.400 C 110.973 213.410,110.630 211.610,110.391 210.400 C 107.382 195.156,109.503 176.404,115.798 162.600 C 116.500 161.060,117.327 159.215,117.635 158.500 C 117.943 157.785,118.331 157.200,118.498 157.200 C 118.664 157.200,118.800 157.003,118.800 156.762 C 118.800 156.521,119.139 155.846,119.553 155.262 C 119.967 154.678,120.690 153.514,121.160 152.676 C 123.884 147.812,131.159 140.285,136.675 136.624 L 139.550 134.716 139.756 130.658 C 139.970 126.440,140.466 121.539,141.199 116.400 C 141.434 114.750,141.727 112.410,141.849 111.200 C 141.971 109.990,142.235 108.829,142.435 108.620 C 142.636 108.411,142.800 107.387,142.800 106.344 C 142.800 105.301,142.980 104.336,143.200 104.200 C 143.420 104.064,143.600 103.074,143.600 102.000 C 143.600 100.926,143.761 99.948,143.958 99.826 C 144.295 99.618,144.418 99.055,145.033 94.897 C 145.171 93.961,145.445 93.095,145.642 92.974 C 145.839 92.852,146.000 92.054,146.000 91.200 C 146.000 90.346,146.180 89.536,146.400 89.400 C 146.620 89.264,146.800 88.711,146.800 88.171 C 146.800 87.631,146.961 86.877,147.157 86.495 C 147.354 86.113,147.740 84.810,148.016 83.600 C 148.292 82.390,148.831 80.410,149.215 79.200 C 149.598 77.990,150.307 75.695,150.789 74.100 C 151.272 72.505,151.803 71.200,151.969 71.200 C 152.136 71.200,152.513 70.435,152.808 69.500 C 153.103 68.565,153.454 67.620,153.589 67.400 C 153.723 67.180,154.063 66.280,154.343 65.400 C 154.947 63.504,155.207 62.847,156.400 60.200 C 156.896 59.100,157.445 57.840,157.620 57.400 C 158.931 54.102,159.763 52.308,162.434 47.014 C 165.942 40.061,168.125 36.125,169.925 33.509 C 170.626 32.490,171.200 31.541,171.200 31.400 C 171.200 31.016,173.342 27.924,177.066 22.931 C 181.064 17.572,181.059 17.600,178.000 17.600 C 176.667 17.600,175.600 17.778,175.600 18.000 M219.600 17.986 C 219.600 18.199,220.945 20.166,222.588 22.358 C 231.672 34.474,241.019 52.055,246.002 66.400 C 246.499 67.830,247.249 69.682,247.669 70.515 C 248.936 73.031,253.098 86.681,254.038 91.400 C 254.213 92.280,254.556 93.810,254.800 94.800 C 255.474 97.536,256.003 99.979,256.421 102.300 C 257.462 108.072,257.656 109.178,258.013 111.400 C 259.016 117.652,259.853 124.764,260.325 131.066 L 260.600 134.731 263.400 136.639 C 273.127 143.267,282.555 155.990,286.343 167.600 C 288.466 174.105,288.966 175.967,289.676 180.000 C 291.251 188.940,291.440 200.054,290.147 207.600 C 289.826 209.470,289.388 212.034,289.174 213.298 C 288.163 219.246,282.582 232.973,280.065 235.700 C 278.744 237.132,277.863 237.094,273.000 235.394 C 268.495 233.820,265.870 233.120,261.800 232.408 C 260.260 232.138,258.136 231.757,257.080 231.559 C 250.637 230.354,249.337 230.891,247.966 235.324 C 247.435 237.042,246.526 239.021,245.947 239.721 L 244.894 240.993 237.473 241.140 L 230.053 241.287 229.927 250.412 C 229.784 260.664,229.625 261.206,226.573 261.779 C 225.457 261.988,225.276 262.155,225.560 262.717 C 225.751 263.093,226.084 263.850,226.300 264.400 C 226.516 264.950,226.897 265.895,227.146 266.500 C 227.396 267.105,227.756 268.005,227.946 268.500 C 228.137 268.995,228.473 269.850,228.693 270.400 C 228.913 270.950,229.273 271.850,229.493 272.400 C 229.713 272.950,230.084 273.850,230.316 274.400 C 230.549 274.950,232.118 279.000,233.803 283.400 C 238.893 296.695,238.365 295.697,240.665 296.376 C 244.713 297.571,254.590 303.511,255.703 305.419 C 255.954 305.851,254.038 309.632,253.179 310.400 C 252.795 310.743,249.600 317.498,249.600 317.966 C 249.600 318.211,249.420 318.768,249.200 319.205 C 248.980 319.642,248.620 320.358,248.400 320.795 C 248.180 321.232,248.000 321.941,248.000 322.371 C 248.000 322.801,247.820 323.264,247.600 323.400 C 247.380 323.536,247.200 324.051,247.200 324.544 C 247.200 325.037,247.038 325.611,246.841 325.820 C 246.508 326.172,246.356 326.961,245.748 331.485 L 245.522 333.170 236.955 333.165 C 232.243 333.163,228.172 333.294,227.908 333.457 C 227.645 333.620,226.703 333.889,225.815 334.055 C 222.938 334.593,221.815 334.854,221.000 335.175 C 220.560 335.348,219.480 335.711,218.600 335.981 C 215.407 336.964,207.129 341.231,205.954 342.500 C 205.598 342.885,205.147 343.205,204.953 343.211 C 204.759 343.218,203.734 344.028,202.675 345.011 C 200.495 347.037,199.811 347.179,198.396 345.900 C 197.848 345.405,196.410 344.190,195.200 343.200 C 193.990 342.210,192.940 341.265,192.867 341.100 C 192.793 340.935,192.556 340.800,192.339 340.800 C 192.122 340.800,191.192 340.299,190.272 339.688 C 189.352 339.076,188.150 338.374,187.600 338.129 C 184.333 336.668,183.246 336.227,180.816 335.379 C 174.873 333.302,166.137 332.103,160.510 332.590 C 158.580 332.757,156.100 332.923,155.000 332.957 C 153.900 332.992,152.460 333.160,151.800 333.330 C 148.668 334.138,147.336 334.516,146.600 334.807 C 146.160 334.980,144.720 335.535,143.400 336.040 C 134.869 339.304,126.656 345.714,120.246 354.112 C 119.451 355.154,118.800 356.108,118.800 356.231 C 118.800 356.355,118.294 357.208,117.675 358.128 C 115.934 360.714,113.170 366.813,112.385 369.800 C 112.211 370.460,111.784 372.044,111.435 373.320 C 111.086 374.595,110.800 376.080,110.800 376.620 C 110.800 377.399,110.595 377.600,109.800 377.600 C 109.250 377.600,108.800 377.420,108.800 377.200 C 108.800 376.980,108.530 376.800,108.200 376.800 C 107.870 376.800,107.600 376.620,107.600 376.400 C 107.600 376.180,107.255 376.000,106.833 376.000 C 106.412 376.000,105.986 375.775,105.888 375.500 C 105.790 375.225,105.573 375.126,105.407 375.281 C 105.003 375.657,106.180 376.800,106.971 376.800 C 107.317 376.800,107.600 376.946,107.600 377.125 C 107.600 377.304,108.230 377.698,109.000 378.000 C 109.770 378.302,110.400 378.696,110.400 378.875 C 110.400 379.054,110.760 379.200,111.200 379.200 C 111.640 379.200,112.000 379.380,112.000 379.600 C 112.000 379.820,112.360 380.000,112.800 380.000 C 113.240 380.000,113.600 380.180,113.600 380.400 C 113.600 380.620,113.960 380.800,114.400 380.800 C 114.840 380.800,115.200 380.980,115.200 381.200 C 115.200 381.420,115.560 381.600,116.000 381.600 C 116.440 381.600,116.800 381.780,116.800 382.000 C 116.800 382.220,117.160 382.400,117.600 382.400 C 118.040 382.400,118.400 382.580,118.400 382.800 C 118.400 383.020,118.760 383.200,119.200 383.200 C 119.640 383.200,120.000 383.380,120.000 383.600 C 120.000 383.820,120.349 384.000,120.776 384.000 C 121.203 384.000,121.664 384.180,121.800 384.400 C 121.936 384.620,122.487 384.800,123.024 384.800 C 123.561 384.800,124.000 384.980,124.000 385.200 C 124.000 385.420,124.360 385.600,124.800 385.600 C 125.240 385.600,125.600 385.780,125.600 386.000 C 125.600 386.220,126.050 386.400,126.600 386.400 C 127.150 386.400,127.600 386.580,127.600 386.800 C 127.600 387.020,127.960 387.200,128.400 387.200 C 128.840 387.200,129.200 387.380,129.200 387.600 C 129.200 387.820,129.740 388.000,130.400 388.000 C 131.060 388.000,131.600 388.180,131.600 388.400 C 131.600 388.620,131.949 388.800,132.376 388.800 C 132.803 388.800,133.264 388.980,133.400 389.200 C 133.536 389.420,134.076 389.600,134.600 389.600 C 135.124 389.600,135.664 389.780,135.800 390.000 C 135.936 390.220,136.476 390.400,137.000 390.400 C 137.524 390.400,138.054 390.563,138.177 390.763 C 138.300 390.962,139.300 391.249,140.400 391.400 C 141.500 391.551,142.500 391.838,142.623 392.037 C 142.746 392.237,143.377 392.400,144.024 392.400 C 144.671 392.400,145.200 392.580,145.200 392.800 C 145.200 393.020,145.830 393.200,146.600 393.200 C 147.370 393.200,148.000 393.380,148.000 393.600 C 148.000 393.820,148.619 394.000,149.376 394.000 C 150.133 394.000,150.864 394.180,151.000 394.400 C 151.136 394.620,151.957 394.800,152.824 394.800 C 153.691 394.800,154.400 394.980,154.400 395.200 C 154.400 395.420,155.120 395.600,156.000 395.600 C 156.880 395.600,157.600 395.780,157.600 396.000 C 157.600 396.220,158.320 396.400,159.200 396.400 C 160.080 396.400,160.800 396.580,160.800 396.800 C 160.800 397.020,161.790 397.200,163.000 397.200 C 164.210 397.200,165.200 397.363,165.200 397.563 C 165.200 397.909,166.857 398.160,172.200 398.625 C 173.520 398.739,175.032 399.051,175.561 399.317 C 176.910 399.996,224.295 400.017,224.715 399.338 C 224.872 399.085,226.170 398.774,227.600 398.648 C 233.159 398.160,234.800 397.912,234.800 397.563 C 234.800 397.363,235.790 397.200,237.000 397.200 C 238.210 397.200,239.200 397.020,239.200 396.800 C 239.200 396.580,239.920 396.400,240.800 396.400 C 241.680 396.400,242.400 396.220,242.400 396.000 C 242.400 395.780,243.120 395.600,244.000 395.600 C 244.880 395.600,245.600 395.420,245.600 395.200 C 245.600 394.980,246.309 394.800,247.176 394.800 C 248.043 394.800,248.864 394.620,249.000 394.400 C 249.136 394.180,249.867 394.000,250.624 394.000 C 251.381 394.000,252.000 393.820,252.000 393.600 C 252.000 393.380,252.630 393.200,253.400 393.200 C 254.170 393.200,254.800 393.020,254.800 392.800 C 254.800 392.580,255.430 392.400,256.200 392.400 C 256.970 392.400,257.600 392.237,257.600 392.038 C 257.600 391.838,258.500 391.551,259.600 391.400 C 260.699 391.249,261.700 390.962,261.823 390.763 C 261.946 390.563,262.476 390.400,263.000 390.400 C 263.524 390.400,264.064 390.220,264.200 390.000 C 264.336 389.780,264.876 389.600,265.400 389.600 C 265.924 389.600,266.464 389.420,266.600 389.200 C 266.736 388.980,267.197 388.800,267.624 388.800 C 268.051 388.800,268.400 388.620,268.400 388.400 C 268.400 388.180,268.940 388.000,269.600 388.000 C 270.260 388.000,270.800 387.820,270.800 387.600 C 270.800 387.380,271.160 387.200,271.600 387.200 C 272.040 387.200,272.400 387.020,272.400 386.800 C 272.400 386.580,272.724 386.400,273.120 386.400 C 274.014 386.400,275.993 385.506,275.997 385.100 C 275.999 384.935,276.439 384.800,276.976 384.800 C 277.513 384.800,278.064 384.620,278.200 384.400 C 278.336 384.180,278.797 384.000,279.224 384.000 C 279.651 384.000,280.000 383.820,280.000 383.600 C 280.000 383.380,280.360 383.200,280.800 383.200 C 281.240 383.200,281.600 383.020,281.600 382.800 C 281.600 382.580,281.960 382.400,282.400 382.400 C 282.840 382.400,283.200 382.220,283.200 382.000 C 283.200 381.780,283.560 381.600,284.000 381.600 C 284.440 381.600,284.800 381.420,284.800 381.200 C 284.800 380.980,285.160 380.800,285.600 380.800 C 286.040 380.800,286.400 380.620,286.400 380.400 C 286.400 380.180,286.760 380.000,287.200 380.000 C 287.640 380.000,288.000 379.820,288.000 379.600 C 288.000 379.380,288.360 379.200,288.800 379.200 C 289.240 379.200,289.600 379.020,289.600 378.800 C 289.600 378.580,289.960 378.400,290.400 378.400 C 291.609 378.400,291.359 377.671,290.100 377.527 C 289.160 377.418,288.960 377.167,288.727 375.800 C 287.994 371.498,287.326 369.203,285.583 365.000 C 284.464 362.300,280.726 355.456,280.013 354.800 C 279.893 354.690,279.268 353.880,278.623 353.000 C 273.535 346.060,263.059 338.408,254.768 335.577 C 251.796 334.563,251.751 334.453,252.770 330.708 C 256.934 315.396,267.779 299.432,279.600 291.212 C 280.370 290.677,281.090 290.120,281.200 289.974 C 282.391 288.400,293.958 282.272,298.600 280.756 C 299.480 280.468,300.380 280.123,300.600 279.989 C 301.006 279.741,303.090 279.128,306.000 278.400 C 306.880 278.180,308.313 277.793,309.185 277.541 C 315.608 275.681,334.734 280.598,343.347 286.325 C 344.256 286.930,345.477 287.665,346.060 287.958 C 349.342 289.612,358.527 298.285,362.067 303.074 C 364.687 306.618,365.549 307.280,365.884 306.002 C 365.999 305.561,366.252 305.200,366.447 305.200 C 366.641 305.200,366.800 304.922,366.800 304.583 C 366.800 304.244,367.160 303.580,367.600 303.108 C 368.040 302.636,368.400 302.013,368.400 301.725 C 368.400 301.436,368.580 301.200,368.800 301.200 C 369.020 301.200,369.200 300.840,369.200 300.400 C 369.200 299.960,369.380 299.600,369.600 299.600 C 369.820 299.600,370.000 299.240,370.000 298.800 C 370.000 298.360,370.180 298.000,370.400 298.000 C 370.620 298.000,370.800 297.640,370.800 297.200 C 370.800 296.760,370.980 296.400,371.200 296.400 C 371.420 296.400,371.600 296.040,371.600 295.600 C 371.600 295.160,371.780 294.800,372.000 294.800 C 372.220 294.800,372.400 294.440,372.400 294.000 C 372.400 293.560,372.580 293.200,372.800 293.200 C 373.020 293.200,373.200 292.855,373.200 292.433 C 373.200 292.012,373.335 291.607,373.500 291.533 C 373.967 291.326,375.200 288.463,375.200 287.586 C 375.200 287.154,375.380 286.800,375.600 286.800 C 375.820 286.800,376.000 286.350,376.000 285.800 C 376.000 285.250,376.180 284.800,376.400 284.800 C 376.620 284.800,376.800 284.440,376.800 284.000 C 376.800 283.560,376.980 283.200,377.200 283.200 C 377.420 283.200,377.600 282.761,377.600 282.224 C 377.600 281.687,377.780 281.136,378.000 281.000 C 378.220 280.864,378.400 280.403,378.400 279.976 C 378.400 279.549,378.580 279.200,378.800 279.200 C 379.020 279.200,379.200 278.660,379.200 278.000 C 379.200 277.340,379.380 276.800,379.600 276.800 C 379.820 276.800,380.000 276.440,380.000 276.000 C 380.000 275.560,380.180 275.200,380.400 275.200 C 380.620 275.200,380.800 274.761,380.800 274.224 C 380.800 273.687,380.980 273.136,381.200 273.000 C 381.420 272.864,381.600 272.313,381.600 271.776 C 381.600 271.239,381.780 270.800,382.000 270.800 C 382.220 270.800,382.400 270.260,382.400 269.600 C 382.400 268.940,382.580 268.400,382.800 268.400 C 383.020 268.400,383.200 267.860,383.200 267.200 C 383.200 266.540,383.380 266.000,383.600 266.000 C 383.820 266.000,384.000 265.471,384.000 264.824 C 384.000 264.177,384.180 263.536,384.400 263.400 C 384.620 263.264,384.800 262.533,384.800 261.776 C 384.800 261.019,384.980 260.400,385.200 260.400 C 385.420 260.400,385.600 259.781,385.600 259.024 C 385.600 258.267,385.780 257.536,386.000 257.400 C 386.220 257.264,386.400 256.533,386.400 255.776 C 386.400 255.019,386.580 254.400,386.800 254.400 C 387.020 254.400,387.200 253.691,387.200 252.824 C 387.200 251.957,387.361 251.148,387.558 251.026 C 387.925 250.799,388.269 249.004,388.655 245.300 C 388.775 244.145,389.021 243.200,389.200 243.200 C 389.379 243.200,389.628 242.255,389.752 241.100 C 389.877 239.945,390.167 237.560,390.398 235.800 C 391.341 228.599,391.520 224.256,391.520 208.600 C 391.520 192.944,391.341 188.601,390.398 181.400 C 390.167 179.640,389.877 177.255,389.752 176.100 C 389.628 174.945,389.379 174.000,389.200 174.000 C 389.021 174.000,388.773 173.055,388.650 171.900 C 388.177 167.463,387.907 166.000,387.560 166.000 C 387.362 166.000,387.200 165.280,387.200 164.400 C 387.200 163.520,387.020 162.800,386.800 162.800 C 386.580 162.800,386.400 162.080,386.400 161.200 C 386.400 160.320,386.220 159.600,386.000 159.600 C 385.780 159.600,385.600 158.970,385.600 158.200 C 385.600 157.430,385.420 156.800,385.200 156.800 C 384.980 156.800,384.800 156.181,384.800 155.424 C 384.800 154.667,384.620 153.936,384.400 153.800 C 384.180 153.664,384.000 153.023,384.000 152.376 C 384.000 151.729,383.820 151.200,383.600 151.200 C 383.380 151.200,383.200 150.660,383.200 150.000 C 383.200 149.340,383.020 148.800,382.800 148.800 C 382.580 148.800,382.400 148.260,382.400 147.600 C 382.400 146.940,382.220 146.400,382.000 146.400 C 381.780 146.400,381.600 145.961,381.600 145.424 C 381.600 144.887,381.420 144.336,381.200 144.200 C 380.980 144.064,380.800 143.513,380.800 142.976 C 380.800 142.439,380.620 142.000,380.400 142.000 C 380.180 142.000,380.000 141.640,380.000 141.200 C 380.000 140.760,379.820 140.400,379.600 140.400 C 379.380 140.400,379.200 139.860,379.200 139.200 C 379.200 138.540,379.020 138.000,378.800 138.000 C 378.580 138.000,378.400 137.651,378.400 137.224 C 378.400 136.797,378.220 136.336,378.000 136.200 C 377.780 136.064,377.600 135.513,377.600 134.976 C 377.600 134.439,377.420 134.000,377.200 134.000 C 376.980 134.000,376.800 133.640,376.800 133.200 C 376.800 132.760,376.620 132.400,376.400 132.400 C 376.180 132.400,376.000 131.950,376.000 131.400 C 376.000 130.850,375.820 130.400,375.600 130.400 C 375.380 130.400,375.200 130.046,375.200 129.614 C 375.200 128.737,373.967 125.874,373.500 125.667 C 373.335 125.593,373.200 125.188,373.200 124.767 C 373.200 124.345,373.020 124.000,372.800 124.000 C 372.580 124.000,372.400 123.640,372.400 123.200 C 372.400 122.760,372.220 122.400,372.000 122.400 C 371.780 122.400,371.600 122.040,371.600 121.600 C 371.600 121.160,371.420 120.800,371.200 120.800 C 370.980 120.800,370.800 120.440,370.800 120.000 C 370.800 119.560,370.620 119.200,370.400 119.200 C 370.180 119.200,370.000 118.840,370.000 118.400 C 370.000 117.960,369.820 117.600,369.600 117.600 C 369.380 117.600,369.200 117.240,369.200 116.800 C 369.200 116.360,369.020 116.000,368.800 116.000 C 368.580 116.000,368.400 115.764,368.400 115.475 C 368.400 115.187,368.040 114.564,367.600 114.092 C 367.160 113.620,366.800 112.956,366.800 112.617 C 366.800 112.278,366.620 112.000,366.400 112.000 C 366.180 112.000,366.000 111.813,366.000 111.584 C 366.000 111.110,364.355 108.669,363.900 108.467 C 363.735 108.393,363.600 108.028,363.600 107.655 C 363.600 107.282,363.240 106.717,362.800 106.400 C 362.360 106.083,362.000 105.543,362.000 105.200 C 362.000 104.857,361.640 104.317,361.200 104.000 C 360.760 103.683,360.400 103.103,360.400 102.712 C 360.400 102.320,360.264 102.000,360.098 102.000 C 359.931 102.000,359.554 101.456,359.260 100.791 C 358.966 100.126,358.517 99.361,358.263 99.091 C 358.008 98.821,356.998 97.430,356.017 96.000 C 355.036 94.570,354.091 93.340,353.917 93.267 C 353.743 93.193,353.600 92.954,353.600 92.735 C 353.600 92.516,352.880 91.646,352.000 90.800 C 351.120 89.954,350.400 89.054,350.400 88.800 C 350.400 88.546,349.680 87.646,348.800 86.800 C 347.920 85.954,347.200 85.082,347.200 84.862 C 347.200 84.642,345.940 83.186,344.400 81.628 C 342.860 80.069,341.600 78.643,341.600 78.458 C 341.600 77.992,330.878 67.200,330.415 67.200 C 330.208 67.200,328.777 65.985,327.235 64.500 C 323.013 60.435,320.545 58.400,319.837 58.400 C 319.487 58.400,319.200 58.220,319.200 58.000 C 319.200 55.577,311.807 59.843,308.569 64.134 C 306.990 66.227,306.276 67.541,303.783 72.937 C 302.002 76.794,300.096 75.924,297.017 69.850 C 293.552 63.016,290.389 59.843,284.400 57.192 C 277.826 54.283,277.359 52.300,282.656 49.786 C 284.263 49.024,285.689 48.400,285.826 48.400 C 286.474 48.400,291.794 44.494,292.786 43.290 C 293.932 41.900,294.019 40.400,292.953 40.400 C 292.649 40.400,292.400 40.254,292.400 40.075 C 292.400 39.896,291.770 39.502,291.000 39.200 C 290.230 38.898,289.600 38.504,289.600 38.325 C 289.600 38.146,289.240 38.000,288.800 38.000 C 288.360 38.000,288.000 37.820,288.000 37.600 C 288.000 37.380,287.640 37.200,287.200 37.200 C 286.760 37.200,286.400 37.020,286.400 36.800 C 286.400 36.580,286.040 36.400,285.600 36.400 C 285.160 36.400,284.800 36.220,284.800 36.000 C 284.800 35.780,284.440 35.600,284.000 35.600 C 283.560 35.600,283.200 35.420,283.200 35.200 C 283.200 34.980,282.840 34.800,282.400 34.800 C 281.960 34.800,281.600 34.620,281.600 34.400 C 281.600 34.180,281.240 34.000,280.800 34.000 C 280.360 34.000,280.000 33.820,280.000 33.600 C 280.000 33.380,279.651 33.200,279.224 33.200 C 278.797 33.200,278.336 33.020,278.200 32.800 C 278.064 32.580,277.513 32.400,276.976 32.400 C 276.439 32.400,275.999 32.265,275.997 32.100 C 275.993 31.694,274.014 30.800,273.120 30.800 C 272.724 30.800,272.400 30.620,272.400 30.400 C 272.400 30.180,272.051 30.000,271.624 30.000 C 271.197 30.000,270.736 29.820,270.600 29.600 C 270.464 29.380,270.009 29.200,269.589 29.200 C 269.168 29.200,268.183 28.840,267.400 28.400 C 266.617 27.960,265.632 27.600,265.211 27.600 C 264.791 27.600,264.336 27.420,264.200 27.200 C 264.064 26.980,263.524 26.800,263.000 26.800 C 262.476 26.800,261.949 26.641,261.829 26.446 C 261.708 26.251,261.113 26.000,260.505 25.887 C 259.897 25.773,258.950 25.553,258.400 25.396 C 257.850 25.239,256.815 25.021,256.100 24.912 C 255.385 24.802,254.800 24.552,254.800 24.356 C 254.800 24.160,254.170 24.000,253.400 24.000 C 252.630 24.000,252.000 23.820,252.000 23.600 C 252.000 23.380,251.381 23.200,250.624 23.200 C 249.867 23.200,249.136 23.020,249.000 22.800 C 248.864 22.580,248.043 22.400,247.176 22.400 C 246.309 22.400,245.600 22.220,245.600 22.000 C 245.600 21.780,244.880 21.600,244.000 21.600 C 243.120 21.600,242.400 21.420,242.400 21.200 C 242.400 20.980,241.680 20.800,240.800 20.800 C 239.920 20.800,239.200 20.620,239.200 20.400 C 239.200 20.180,238.210 20.000,237.000 20.000 C 235.790 20.000,234.800 19.820,234.800 19.600 C 234.800 19.380,233.911 19.200,232.824 19.200 C 231.737 19.200,230.736 19.020,230.600 18.800 C 230.464 18.580,229.013 18.400,227.376 18.400 C 225.659 18.400,224.400 18.231,224.400 18.000 C 224.400 17.778,223.333 17.600,222.000 17.600 C 220.680 17.600,219.600 17.774,219.600 17.986 M87.694 97.500 C 88.034 97.885,89.187 99.998,90.256 102.196 C 93.147 108.139,95.974 110.977,101.910 113.897 C 109.356 117.559,109.400 118.721,102.224 122.197 C 96.182 125.124,93.176 127.992,90.773 133.121 C 86.664 141.893,85.658 142.027,81.863 134.310 C 78.656 127.790,76.312 125.497,69.320 122.040 C 62.319 118.579,62.539 117.356,70.820 113.664 C 75.737 111.472,79.515 107.427,82.348 101.319 C 84.528 96.621,85.993 95.574,87.694 97.500 M322.908 119.900 C 323.763 120.847,326.000 125.145,326.000 125.841 C 326.000 126.148,326.141 126.400,326.314 126.400 C 326.486 126.400,326.923 126.901,327.285 127.512 C 328.936 130.309,331.426 132.299,336.398 134.799 C 340.855 137.040,341.596 138.044,340.085 139.800 C 339.311 140.699,336.222 142.400,335.362 142.400 C 335.053 142.400,334.800 142.536,334.800 142.702 C 334.800 142.869,334.305 143.226,333.700 143.497 C 333.095 143.767,332.060 144.457,331.400 145.029 C 330.740 145.601,330.020 146.189,329.800 146.335 C 328.564 147.155,325.200 152.331,325.200 153.412 C 325.200 153.735,325.020 154.000,324.800 154.000 C 324.580 154.000,324.400 154.346,324.400 154.769 C 324.400 155.611,322.222 158.005,321.469 157.991 C 320.469 157.972,319.232 156.486,317.980 153.800 C 316.846 151.367,314.005 146.993,313.173 146.400 C 313.019 146.290,312.325 145.750,311.630 145.200 C 310.936 144.650,308.623 143.294,306.489 142.186 C 300.773 139.219,300.629 136.970,306.030 135.028 C 308.896 133.998,312.539 131.459,314.301 129.266 C 315.125 128.240,315.908 127.310,316.039 127.200 C 316.171 127.090,316.949 125.560,317.769 123.800 C 319.502 120.079,320.195 119.200,321.400 119.200 C 321.882 119.200,322.560 119.515,322.908 119.900 M364.060 307.842 C 363.331 308.666,363.800 309.057,364.581 308.276 C 364.921 307.936,365.200 307.554,365.200 307.429 C 365.200 307.009,364.606 307.224,364.060 307.842 M362.460 310.242 C 361.731 311.066,362.200 311.457,362.981 310.676 C 363.321 310.336,363.600 309.954,363.600 309.829 C 363.600 309.409,363.006 309.624,362.460 310.242 M360.860 312.642 C 360.131 313.466,360.600 313.857,361.381 313.076 C 361.721 312.736,362.000 312.354,362.000 312.229 C 362.000 311.809,361.406 312.024,360.860 312.642 M359.300 314.998 C 359.025 315.311,358.800 315.829,358.800 316.150 C 358.800 316.471,358.599 316.800,358.354 316.882 C 358.109 316.964,357.974 317.371,358.055 317.788 C 358.164 318.357,358.400 318.129,359.000 316.877 C 359.440 315.960,359.935 315.207,360.100 315.205 C 360.265 315.202,360.400 315.020,360.400 314.800 C 360.400 314.237,359.889 314.329,359.300 314.998 M357.194 318.700 C 357.191 318.865,356.201 320.162,354.994 321.581 C 353.788 323.001,352.800 324.330,352.800 324.535 C 352.800 324.739,352.411 325.243,351.936 325.656 C 351.461 326.068,351.180 326.513,351.312 326.645 C 351.606 326.939,353.600 324.999,353.600 324.418 C 353.600 324.188,353.741 324.000,353.914 324.000 C 354.086 324.000,354.521 323.505,354.879 322.900 C 355.237 322.295,355.996 321.260,356.565 320.600 C 357.134 319.940,357.599 319.175,357.600 318.900 C 357.600 318.375,357.204 318.180,357.194 318.700 M43.400 320.400 C 43.264 320.620,43.301 320.800,43.482 320.800 C 43.663 320.800,44.256 321.520,44.800 322.400 C 45.344 323.280,45.926 324.000,46.094 324.000 C 46.262 324.000,46.400 324.188,46.400 324.418 C 46.400 324.999,48.394 326.939,48.688 326.645 C 48.820 326.513,48.539 326.068,48.064 325.656 C 47.589 325.243,47.200 324.703,47.200 324.454 C 47.200 324.206,46.570 323.305,45.800 322.453 C 45.030 321.600,44.400 320.700,44.400 320.452 C 44.400 319.893,43.735 319.858,43.400 320.400 M49.600 328.613 C 49.600 329.022,52.455 331.678,52.667 331.467 C 52.784 331.349,52.238 330.611,51.453 329.827 C 50.092 328.466,49.600 328.143,49.600 328.613 M348.461 329.855 C 347.725 330.625,347.218 331.351,347.334 331.468 C 347.545 331.679,350.400 329.021,350.400 328.613 C 350.400 328.108,349.709 328.550,348.461 329.855 M52.800 332.346 C 52.800 332.859,57.193 337.340,57.447 337.086 C 57.566 336.967,56.750 335.936,55.632 334.794 C 54.514 333.653,53.600 332.557,53.600 332.359 C 53.600 332.162,53.420 332.000,53.200 332.000 C 52.980 332.000,52.800 332.156,52.800 332.346 M346.400 332.431 C 346.400 332.669,345.658 333.576,344.750 334.448 C 343.843 335.320,343.207 336.140,343.338 336.271 C 343.602 336.536,347.200 332.870,347.200 332.336 C 347.200 332.151,347.020 332.000,346.800 332.000 C 346.580 332.000,346.400 332.194,346.400 332.431 M59.644 340.232 C 64.033 344.865,68.922 349.636,69.700 350.046 C 70.576 350.508,68.093 347.834,62.018 341.775 C 59.034 338.798,57.087 337.533,59.644 340.232 M340.521 339.320 C 340.258 339.584,338.908 340.945,337.521 342.345 C 336.134 343.745,333.741 346.159,332.202 347.711 C 330.663 349.263,329.790 350.327,330.261 350.075 C 331.662 349.324,342.078 338.783,341.381 338.820 C 341.172 338.831,340.784 339.056,340.521 339.320 M70.800 350.609 C 70.800 351.015,75.116 355.126,76.051 355.612 C 76.573 355.883,75.689 354.821,74.086 353.252 C 71.318 350.543,70.800 350.127,70.800 350.609 M326.400 352.736 C 325.190 353.994,323.480 355.558,322.600 356.212 C 320.421 357.830,319.861 358.395,320.150 358.683 C 320.285 358.818,320.788 358.585,321.269 358.164 C 321.750 357.744,322.664 356.950,323.301 356.400 C 325.307 354.666,329.200 350.854,329.200 350.622 C 329.200 350.047,328.424 350.633,326.400 352.736 M78.139 357.600 C 79.626 358.906,81.115 359.325,79.750 358.054 C 78.939 357.298,77.452 356.400,77.012 356.400 C 76.880 356.400,77.387 356.940,78.139 357.600 M80.800 359.013 C 80.800 359.131,81.424 359.851,82.187 360.613 C 83.565 361.992,84.400 362.364,84.400 361.600 C 84.400 361.380,84.222 361.200,84.003 361.200 C 83.785 361.200,83.091 360.660,82.460 360.000 C 81.381 358.871,80.800 358.525,80.800 359.013 M317.436 360.200 C 316.886 360.750,316.283 361.200,316.096 361.200 C 315.546 361.200,312.659 363.992,312.929 364.263 C 313.065 364.399,313.704 363.945,314.349 363.255 C 314.993 362.565,315.725 362.000,315.974 362.000 C 316.223 362.000,317.057 361.370,317.827 360.600 C 318.597 359.830,319.049 359.200,318.832 359.200 C 318.614 359.200,317.986 359.650,317.436 360.200 M84.800 362.218 C 84.800 362.632,86.849 364.484,87.067 364.267 C 87.187 364.147,86.824 363.588,86.261 363.024 C 85.265 362.028,84.800 361.772,84.800 362.218 M88.590 365.448 C 88.947 365.804,89.359 365.974,89.507 365.826 C 89.656 365.678,89.512 365.389,89.188 365.184 C 88.243 364.587,87.887 364.744,88.590 365.448 M90.400 366.229 C 90.400 366.787,93.956 369.377,94.279 369.054 C 94.589 368.744,93.359 367.600,92.717 367.600 C 92.420 367.600,91.917 367.240,91.600 366.800 C 91.054 366.043,90.400 365.731,90.400 366.229 M308.400 366.800 C 308.083 367.240,307.580 367.600,307.283 367.600 C 306.631 367.600,305.413 368.747,305.729 369.063 C 306.073 369.406,309.600 366.823,309.600 366.229 C 309.600 365.731,308.946 366.043,308.400 366.800 M94.800 369.429 C 94.800 369.847,95.936 370.800,96.433 370.800 C 96.743 370.800,96.657 370.505,96.200 370.000 C 95.507 369.234,94.800 368.946,94.800 369.429 M303.830 370.024 C 303.359 370.498,303.254 370.800,303.559 370.800 C 304.063 370.800,305.200 369.850,305.200 369.429 C 305.200 368.990,304.594 369.253,303.830 370.024 M97.200 371.095 C 97.200 371.484,98.814 372.519,99.051 372.282 C 99.147 372.186,98.769 371.810,98.212 371.445 C 97.656 371.080,97.200 370.922,97.200 371.095 M301.430 371.624 C 301.007 372.051,300.827 372.394,301.030 372.387 C 301.501 372.371,302.800 371.394,302.800 371.056 C 302.800 370.592,302.212 370.835,301.430 371.624 M99.600 372.773 C 99.600 373.008,99.797 373.200,100.038 373.200 C 100.279 373.200,100.954 373.536,101.538 373.948 C 102.929 374.927,104.400 375.379,104.400 374.827 C 104.400 374.592,104.203 374.400,103.962 374.400 C 103.721 374.400,103.046 374.064,102.462 373.652 C 101.071 372.673,99.600 372.221,99.600 372.773 M298.394 373.211 C 297.627 373.657,296.685 374.128,296.300 374.258 C 295.915 374.387,295.600 374.664,295.600 374.874 C 295.600 375.378,297.135 374.881,298.462 373.948 C 299.046 373.536,299.721 373.200,299.962 373.200 C 300.203 373.200,300.400 373.020,300.400 372.800 C 300.400 372.213,299.952 372.305,298.394 373.211 M294.000 375.600 C 294.000 375.820,293.717 376.000,293.371 376.000 C 292.580 376.000,291.403 377.143,291.807 377.519 C 291.973 377.674,292.190 377.575,292.288 377.300 C 292.386 377.025,292.735 376.800,293.062 376.800 C 293.642 376.800,294.800 375.886,294.800 375.429 C 294.800 375.303,294.620 375.200,294.400 375.200 C 294.180 375.200,294.000 375.380,294.000 375.600 " stroke="none" fill="#1e2e67" fill-rule="evenodd"></path><path id="path3" d="M247.612 70.941 C 247.605 71.128,248.296 73.378,249.147 75.941 C 249.999 78.503,251.100 82.130,251.595 84.000 C 253.327 90.537,253.926 92.438,253.968 91.533 C 254.006 90.742,251.322 80.961,249.619 75.682 C 248.490 72.183,247.640 70.173,247.612 70.941 M150.792 74.025 C 150.311 75.580,150.006 76.940,150.115 77.048 C 150.223 77.156,150.630 76.200,151.018 74.922 C 151.407 73.645,151.877 72.429,152.063 72.220 C 152.507 71.719,152.492 71.200,152.033 71.200 C 151.832 71.200,151.273 72.471,150.792 74.025 M149.084 79.600 C 148.731 80.810,148.232 82.700,147.974 83.800 C 147.716 84.900,147.347 86.113,147.153 86.495 C 146.784 87.220,146.655 89.079,146.996 88.737 C 147.104 88.629,147.565 87.043,148.021 85.211 C 148.477 83.380,149.120 81.087,149.450 80.115 C 149.779 79.143,149.976 78.135,149.887 77.874 C 149.797 77.613,149.436 78.390,149.084 79.600 M146.267 89.467 C 146.120 89.613,146.018 90.378,146.040 91.167 L 146.080 92.600 146.446 91.040 C 146.815 89.468,146.759 88.975,146.267 89.467 M145.439 93.243 C 145.233 93.881,144.855 95.917,144.535 98.103 C 144.414 98.929,144.155 99.705,143.958 99.826 C 143.761 99.948,143.600 100.926,143.600 102.000 C 143.600 103.074,143.420 104.064,143.200 104.200 C 142.980 104.336,142.800 105.301,142.800 106.344 C 142.800 107.387,142.636 108.411,142.435 108.620 C 142.235 108.829,141.971 109.990,141.849 111.200 C 141.727 112.410,141.434 114.750,141.199 116.400 C 140.378 122.157,139.959 126.631,139.833 131.000 L 139.705 135.400 140.019 131.600 C 140.676 123.623,141.926 113.843,143.163 107.000 C 143.361 105.900,143.642 104.280,143.785 103.400 C 144.063 101.699,144.376 100.250,145.411 95.862 C 145.961 93.528,145.982 91.558,145.439 93.243 M254.006 93.051 C 253.988 94.386,255.399 99.303,255.518 98.320 C 255.590 97.726,255.458 96.882,255.225 96.446 C 254.991 96.010,254.797 95.236,254.794 94.726 C 254.788 93.813,254.018 92.176,254.006 93.051 M255.646 100.400 C 255.709 102.280,256.314 103.646,256.354 102.000 C 256.373 101.230,256.213 100.330,256.000 100.000 C 255.695 99.528,255.619 99.614,255.646 100.400 M193.200 102.227 C 190.646 102.736,189.037 103.147,186.545 103.926 C 182.878 105.072,175.373 109.882,171.779 113.389 C 155.352 129.416,156.972 157.226,175.200 172.145 C 178.244 174.636,178.734 174.952,183.000 177.174 C 189.221 180.415,199.617 182.083,205.523 180.789 C 206.555 180.562,208.300 180.189,209.400 179.959 C 215.702 178.640,223.536 174.100,228.429 168.932 C 230.437 166.810,233.600 162.999,233.600 162.700 C 233.600 162.596,234.312 161.216,235.182 159.633 C 236.743 156.792,237.789 154.107,238.855 150.200 C 239.215 148.877,239.400 145.898,239.400 141.400 C 239.400 136.902,239.215 133.923,238.855 132.600 C 237.789 128.693,236.743 126.008,235.182 123.167 C 234.312 121.584,233.600 120.200,233.600 120.091 C 233.600 117.112,219.537 105.828,213.455 103.926 C 206.161 101.646,199.088 101.052,193.200 102.227 M256.453 104.800 C 256.542 106.950,257.100 108.399,257.147 106.600 C 257.169 105.720,257.013 104.730,256.800 104.400 C 256.496 103.929,256.421 104.015,256.453 104.800 M257.200 108.633 C 257.200 108.835,257.631 112.150,258.156 116.000 C 258.682 119.850,259.328 125.340,259.592 128.200 C 260.198 134.773,260.398 135.658,260.178 130.800 C 259.995 126.765,259.505 121.723,258.817 116.800 C 258.587 115.150,258.258 112.684,258.086 111.321 C 257.827 109.261,257.199 107.356,257.200 108.633 M206.216 117.006 C 214.202 119.036,220.624 124.801,223.585 132.600 C 224.683 135.491,224.914 137.022,224.914 141.400 C 224.914 157.343,209.501 170.548,197.700 164.716 C 196.325 164.036,195.200 163.327,195.200 163.140 C 195.200 162.953,194.951 162.800,194.646 162.800 C 192.609 162.800,184.800 152.635,184.800 149.983 C 184.800 149.578,184.620 149.136,184.400 149.000 C 184.180 148.864,184.000 148.234,184.000 147.600 C 184.000 146.966,183.820 146.336,183.600 146.200 C 182.595 145.579,183.236 136.307,184.449 133.905 C 184.642 133.523,184.800 132.859,184.800 132.429 C 184.800 131.999,184.980 131.536,185.200 131.400 C 185.420 131.264,185.600 130.803,185.600 130.376 C 185.600 129.949,185.780 129.600,186.000 129.600 C 186.220 129.600,186.400 129.280,186.400 128.888 C 186.400 128.497,186.760 127.917,187.200 127.600 C 187.640 127.283,188.000 126.812,188.000 126.553 C 188.000 125.898,193.556 120.326,194.900 119.632 C 195.505 119.320,196.000 118.915,196.000 118.732 C 196.000 118.550,196.360 118.400,196.800 118.400 C 197.240 118.400,197.600 118.220,197.600 118.000 C 197.600 117.780,197.960 117.600,198.400 117.600 C 198.840 117.600,199.200 117.431,199.200 117.225 C 199.200 116.875,200.439 116.614,202.816 116.464 C 203.375 116.429,204.905 116.673,206.216 117.006 M319.891 119.900 C 319.544 120.285,318.588 122.040,317.769 123.800 C 316.949 125.560,316.171 127.090,316.039 127.200 C 315.908 127.310,315.125 128.240,314.301 129.266 C 312.539 131.459,308.896 133.998,306.030 135.028 C 300.629 136.970,300.773 139.219,306.489 142.186 C 308.623 143.294,310.936 144.650,311.630 145.200 C 312.325 145.750,313.019 146.290,313.173 146.400 C 314.005 146.993,316.846 151.367,317.980 153.800 C 319.232 156.486,320.469 157.972,321.469 157.991 C 322.222 158.005,324.400 155.611,324.400 154.769 C 324.400 154.346,324.580 154.000,324.800 154.000 C 325.020 154.000,325.200 153.735,325.200 153.412 C 325.200 152.331,328.564 147.155,329.800 146.335 C 330.020 146.189,330.740 145.601,331.400 145.029 C 332.060 144.457,333.095 143.767,333.700 143.497 C 334.305 143.226,334.800 142.869,334.800 142.702 C 334.800 142.536,335.053 142.400,335.362 142.400 C 336.222 142.400,339.311 140.699,340.085 139.800 C 341.596 138.044,340.855 137.040,336.398 134.799 C 331.426 132.299,328.936 130.309,327.285 127.512 C 326.923 126.901,326.475 126.400,326.289 126.400 C 324.247 126.400,331.328 132.786,335.950 135.112 C 341.462 137.887,341.562 139.097,336.474 141.493 C 330.521 144.296,327.314 147.498,324.623 153.323 C 322.107 158.769,320.586 158.605,317.941 152.600 C 315.786 147.710,312.272 144.342,306.428 141.566 C 302.957 139.918,302.067 138.922,302.887 137.609 C 303.378 136.822,303.780 136.590,307.632 134.863 C 312.158 132.834,315.361 129.556,318.027 124.223 C 320.933 118.410,321.780 118.244,324.286 123.000 C 325.214 124.760,325.979 125.993,325.986 125.741 C 326.038 124.023,322.656 119.200,321.400 119.200 C 320.918 119.200,320.239 119.515,319.891 119.900 M151.214 233.033 C 151.646 234.041,152.000 235.201,152.000 235.610 C 152.000 236.018,152.180 236.464,152.400 236.600 C 152.620 236.736,152.800 237.194,152.800 237.617 C 152.800 238.041,153.325 238.975,153.967 239.694 L 155.134 241.000 162.667 241.045 L 170.200 241.090 163.000 240.844 C 155.157 240.576,154.517 240.398,153.643 238.251 C 153.362 237.563,152.975 236.640,152.782 236.200 C 152.589 235.760,152.133 234.455,151.769 233.300 C 151.406 232.145,150.955 231.200,150.768 231.200 C 150.581 231.200,150.782 232.025,151.214 233.033 M248.697 231.500 C 248.614 231.665,248.116 233.150,247.592 234.800 C 246.404 238.534,245.765 239.564,244.219 240.238 L 243.000 240.769 244.080 240.784 C 245.539 240.806,246.804 239.006,248.003 235.200 C 248.523 233.550,249.117 231.975,249.323 231.700 C 249.564 231.379,249.546 231.200,249.273 231.200 C 249.039 231.200,248.779 231.335,248.697 231.500 M233.100 241.098 C 234.915 241.172,237.885 241.172,239.700 241.098 C 241.515 241.023,240.030 240.963,236.400 240.963 C 232.770 240.963,231.285 241.023,233.100 241.098 M174.500 262.288 C 174.225 262.386,174.000 262.724,174.000 263.039 C 174.000 263.353,173.834 263.923,173.630 264.305 C 173.305 264.916,171.515 269.492,168.274 278.000 C 163.776 289.805,162.560 292.902,161.953 294.095 C 161.759 294.477,161.600 295.040,161.600 295.346 C 161.600 295.652,161.015 296.121,160.300 296.387 C 154.065 298.708,147.918 302.942,146.057 306.200 C 145.530 307.123,145.824 307.389,142.235 302.743 C 140.192 300.100,137.332 297.488,135.270 296.382 C 134.611 296.028,133.617 295.441,133.062 295.077 C 132.506 294.713,131.434 294.069,130.680 293.645 C 129.926 293.222,128.970 292.681,128.555 292.444 C 111.424 282.655,82.176 282.655,65.045 292.444 C 64.630 292.681,63.640 293.239,62.845 293.684 C 62.050 294.130,60.922 294.833,60.338 295.247 C 59.754 295.661,59.141 296.000,58.975 296.000 C 58.706 296.000,54.499 299.063,54.000 299.622 C 53.890 299.745,53.350 300.154,52.800 300.530 C 47.815 303.940,38.604 315.200,40.800 315.200 C 41.020 315.200,41.200 315.560,41.200 316.000 C 41.200 316.440,41.380 316.800,41.600 316.800 C 41.820 316.800,42.000 317.160,42.000 317.600 C 42.000 318.040,42.191 318.400,42.424 318.400 C 42.657 318.400,42.736 318.580,42.600 318.800 C 42.464 319.020,42.653 319.200,43.019 319.200 C 43.437 319.200,43.603 319.416,43.463 319.780 C 43.315 320.167,43.433 320.285,43.820 320.137 C 44.139 320.014,44.400 320.137,44.400 320.409 C 44.400 320.681,45.030 321.600,45.800 322.453 C 46.570 323.305,47.200 324.232,47.200 324.513 C 47.200 324.794,47.560 325.283,48.000 325.600 C 48.440 325.917,48.800 326.443,48.800 326.768 C 48.800 327.093,49.700 328.204,50.800 329.237 C 51.900 330.270,52.800 331.222,52.800 331.353 C 52.800 331.689,53.922 333.025,55.900 335.044 C 56.835 335.998,57.600 336.948,57.600 337.156 C 57.600 337.363,58.129 338.032,58.776 338.643 C 59.423 339.253,59.846 339.926,59.715 340.138 C 59.584 340.350,59.668 340.405,59.902 340.261 C 60.136 340.116,61.379 341.070,62.664 342.380 C 63.949 343.691,66.238 346.031,67.750 347.581 C 69.263 349.132,70.657 350.400,70.848 350.400 C 71.378 350.400,76.215 355.290,76.090 355.700 C 76.030 355.898,76.165 355.945,76.390 355.806 C 76.616 355.667,76.800 355.722,76.800 355.928 C 76.800 356.134,77.340 356.527,78.000 356.800 C 78.660 357.073,79.200 357.425,79.200 357.581 C 79.200 357.737,79.695 358.117,80.300 358.425 C 80.905 358.733,81.897 359.483,82.503 360.092 C 83.110 360.702,83.785 361.200,84.003 361.200 C 84.222 361.200,84.400 361.380,84.400 361.600 C 84.400 361.820,84.586 362.000,84.813 362.000 C 85.041 362.000,85.842 362.615,86.593 363.367 C 87.345 364.118,88.329 364.851,88.780 364.994 C 89.231 365.137,89.600 365.422,89.600 365.627 C 89.600 365.832,89.920 366.000,90.312 366.000 C 90.703 366.000,91.283 366.360,91.600 366.800 C 91.917 367.240,92.457 367.600,92.800 367.600 C 93.143 367.600,93.683 367.960,94.000 368.400 C 94.317 368.840,94.713 369.200,94.880 369.200 C 95.047 369.200,96.120 369.909,97.265 370.775 C 98.409 371.641,99.797 372.463,100.348 372.601 C 100.900 372.740,101.840 373.201,102.437 373.627 C 103.035 374.052,103.721 374.400,103.962 374.400 C 104.203 374.400,104.400 374.580,104.400 374.800 C 104.400 375.020,104.760 375.200,105.200 375.200 C 105.640 375.200,106.000 375.380,106.000 375.600 C 106.000 375.820,106.360 376.000,106.800 376.000 C 107.240 376.000,107.600 376.180,107.600 376.400 C 107.600 376.620,107.870 376.800,108.200 376.800 C 108.530 376.800,108.800 376.980,108.800 377.200 C 108.800 377.420,109.250 377.600,109.800 377.600 C 110.595 377.600,110.800 377.399,110.800 376.620 C 110.800 376.080,111.086 374.595,111.435 373.320 C 111.784 372.044,112.211 370.460,112.385 369.800 C 113.170 366.813,115.934 360.714,117.675 358.128 C 118.294 357.208,118.800 356.355,118.800 356.231 C 118.800 356.108,119.451 355.154,120.246 354.112 C 126.656 345.714,134.869 339.304,143.400 336.040 C 144.720 335.535,146.160 334.980,146.600 334.807 C 147.336 334.516,148.668 334.138,151.800 333.330 C 152.460 333.160,153.900 332.992,155.000 332.957 C 156.100 332.923,158.580 332.757,160.510 332.590 C 166.137 332.103,174.873 333.302,180.816 335.379 C 183.246 336.227,184.333 336.668,187.600 338.129 C 188.150 338.374,189.352 339.076,190.272 339.688 C 191.192 340.299,192.122 340.800,192.339 340.800 C 192.556 340.800,192.793 340.935,192.867 341.100 C 192.940 341.265,193.990 342.210,195.200 343.200 C 196.410 344.190,197.848 345.405,198.396 345.900 C 199.811 347.179,200.495 347.037,202.675 345.011 C 203.734 344.028,204.759 343.218,204.953 343.211 C 205.147 343.205,205.598 342.885,205.954 342.500 C 207.129 341.231,215.407 336.964,218.600 335.981 C 219.480 335.711,220.560 335.348,221.000 335.175 C 221.815 334.854,222.938 334.593,225.815 334.055 C 226.703 333.889,227.645 333.620,227.908 333.457 C 228.172 333.294,232.243 333.163,236.955 333.165 L 245.522 333.170 245.748 331.485 C 246.356 326.961,246.508 326.172,246.841 325.820 C 247.038 325.611,247.200 325.037,247.200 324.544 C 247.200 324.051,247.380 323.536,247.600 323.400 C 247.820 323.264,248.000 322.801,248.000 322.371 C 248.000 321.941,248.208 321.187,248.462 320.695 C 249.400 318.882,249.600 318.401,249.600 317.966 C 249.600 317.498,252.795 310.743,253.179 310.400 C 254.038 309.632,255.954 305.851,255.703 305.419 C 254.590 303.511,244.713 297.571,240.665 296.376 C 238.365 295.697,238.893 296.695,233.803 283.400 C 232.118 279.000,230.549 274.950,230.316 274.400 C 230.084 273.850,229.737 272.995,229.546 272.500 C 229.356 272.005,229.044 271.195,228.854 270.700 C 228.663 270.205,228.303 269.305,228.054 268.700 C 227.804 268.095,227.399 267.105,227.153 266.500 C 226.908 265.895,226.548 265.087,226.353 264.705 C 226.159 264.323,226.000 263.760,226.000 263.454 C 226.000 263.148,225.735 262.678,225.411 262.409 C 224.853 261.946,225.488 263.772,228.363 270.900 C 228.563 271.395,229.839 274.680,231.200 278.200 C 232.561 281.720,233.837 285.005,234.037 285.500 C 234.950 287.764,235.216 288.437,236.662 292.138 L 238.200 296.075 241.423 297.376 C 246.197 299.301,249.905 301.352,252.696 303.610 L 255.179 305.620 253.606 308.191 C 251.984 310.840,248.907 317.126,248.021 319.600 C 247.745 320.370,247.382 321.360,247.215 321.800 C 246.486 323.718,246.000 325.519,246.000 326.305 C 246.000 326.771,245.820 327.264,245.600 327.400 C 245.380 327.536,245.200 328.348,245.200 329.205 C 245.200 331.827,244.548 332.787,243.057 332.359 C 238.803 331.139,227.262 332.290,219.800 334.679 C 213.779 336.606,207.436 340.096,202.200 344.362 C 199.845 346.281,200.075 346.232,198.736 345.100 C 195.790 342.609,194.237 341.385,193.839 341.240 C 193.598 341.152,193.310 340.948,193.200 340.787 C 192.646 339.975,186.117 336.646,182.200 335.179 C 176.150 332.913,171.647 332.229,162.682 332.213 C 155.485 332.201,155.158 332.166,155.017 331.400 C 153.748 324.505,152.177 319.848,148.879 313.202 C 147.405 310.233,146.140 307.668,146.067 307.502 C 145.494 306.205,154.549 299.141,158.657 297.679 C 161.576 296.641,161.693 296.509,163.187 292.600 C 163.355 292.160,163.683 291.350,163.914 290.800 C 164.146 290.250,165.540 286.650,167.013 282.800 C 168.486 278.950,170.030 275.037,170.445 274.104 C 170.860 273.172,171.200 272.224,171.200 271.999 C 171.200 271.774,171.359 271.277,171.553 270.895 C 171.748 270.513,172.084 269.750,172.300 269.200 C 172.516 268.650,172.921 267.660,173.200 267.000 C 173.479 266.340,173.884 265.350,174.100 264.800 C 174.316 264.250,174.665 263.467,174.874 263.061 C 175.308 262.220,175.217 262.032,174.500 262.288 M308.800 277.587 C 308.250 277.784,306.990 278.152,306.000 278.405 C 302.587 279.279,300.999 279.745,300.600 279.989 C 300.380 280.123,299.480 280.468,298.600 280.756 C 293.958 282.272,282.391 288.400,281.200 289.974 C 281.090 290.120,280.370 290.677,279.600 291.212 C 267.779 299.432,256.934 315.396,252.770 330.708 C 251.751 334.453,251.796 334.563,254.768 335.577 C 263.059 338.408,273.535 346.060,278.623 353.000 C 279.268 353.880,279.893 354.690,280.013 354.800 C 280.726 355.456,284.464 362.300,285.583 365.000 C 287.326 369.203,287.994 371.498,288.727 375.800 C 289.059 377.746,290.722 378.273,291.975 376.829 C 292.370 376.373,292.988 376.000,293.347 376.000 C 293.706 376.000,294.000 375.820,294.000 375.600 C 294.000 375.380,294.360 375.200,294.800 375.200 C 295.240 375.200,295.600 375.020,295.600 374.800 C 295.600 374.580,295.797 374.400,296.038 374.400 C 296.279 374.400,296.965 374.052,297.563 373.627 C 298.160 373.201,299.115 372.736,299.685 372.593 C 300.255 372.450,301.054 372.033,301.460 371.667 C 301.867 371.300,302.695 370.745,303.300 370.432 C 303.905 370.120,304.400 369.715,304.400 369.532 C 304.400 369.350,304.630 369.200,304.912 369.200 C 305.193 369.200,305.683 368.840,306.000 368.400 C 306.317 367.960,306.857 367.600,307.200 367.600 C 307.543 367.600,308.083 367.240,308.400 366.800 C 308.717 366.360,309.297 366.000,309.688 366.000 C 310.080 366.000,310.400 365.820,310.400 365.600 C 310.400 365.380,310.638 365.200,310.929 365.200 C 311.220 365.200,312.422 364.300,313.600 363.200 C 314.778 362.100,315.898 361.200,316.089 361.200 C 316.280 361.200,316.886 360.750,317.436 360.200 C 317.986 359.650,318.600 359.200,318.800 359.200 C 319.000 359.200,319.578 358.795,320.085 358.300 C 320.591 357.805,321.724 356.865,322.603 356.211 C 323.481 355.557,325.225 353.982,326.478 352.711 C 327.731 351.440,328.932 350.400,329.147 350.400 C 329.526 350.400,333.701 346.381,336.241 343.572 C 336.923 342.817,338.453 341.282,339.641 340.159 C 341.870 338.053,343.200 336.559,343.200 336.164 C 343.200 336.039,343.920 335.246,344.800 334.400 C 345.680 333.554,346.400 332.669,346.400 332.431 C 346.400 332.194,346.580 332.000,346.800 332.000 C 347.020 332.000,347.200 331.801,347.200 331.557 C 347.200 331.314,348.100 330.270,349.200 329.237 C 350.300 328.204,351.200 327.093,351.200 326.768 C 351.200 326.443,351.560 325.917,352.000 325.600 C 352.440 325.283,352.800 324.827,352.800 324.588 C 352.800 324.348,353.626 323.173,354.636 321.976 C 355.646 320.779,356.816 319.394,357.236 318.897 C 357.656 318.400,358.000 317.725,358.000 317.397 C 358.000 317.069,358.180 316.800,358.400 316.800 C 358.620 316.800,358.800 316.480,358.800 316.088 C 358.800 315.697,359.160 315.117,359.600 314.800 C 360.040 314.483,360.400 313.943,360.400 313.600 C 360.400 313.257,360.760 312.717,361.200 312.400 C 361.640 312.083,362.000 311.543,362.000 311.200 C 362.000 310.857,362.360 310.317,362.800 310.000 C 363.240 309.683,363.600 309.169,363.600 308.859 C 363.600 308.548,363.973 307.971,364.428 307.575 C 365.245 306.867,365.246 306.846,364.489 306.089 C 364.066 305.666,362.724 303.989,361.505 302.360 C 358.197 297.941,349.173 289.527,346.060 287.958 C 345.477 287.665,344.256 286.930,343.347 286.325 C 334.730 280.596,314.624 275.511,308.800 277.587 " stroke="none" fill="#435ba3" fill-rule="evenodd"></path><path id="path4" d="M300.000 30.400 C 300.000 30.620,299.757 30.800,299.460 30.800 C 299.163 30.800,298.309 32.015,297.562 33.500 C 296.815 34.985,296.068 36.260,295.902 36.333 C 295.736 36.407,295.600 36.812,295.600 37.233 C 295.600 37.655,295.409 38.000,295.176 38.000 C 294.943 38.000,294.855 38.165,294.980 38.368 C 295.105 38.570,294.907 39.036,294.540 39.403 C 294.155 39.788,293.894 40.634,293.923 41.404 C 293.997 43.355,290.367 46.598,285.374 49.043 C 281.230 51.073,279.600 52.181,279.600 52.968 C 279.600 53.738,281.006 55.200,281.747 55.200 C 282.106 55.200,282.400 55.380,282.400 55.600 C 282.400 55.820,282.760 56.000,283.200 56.000 C 283.640 56.000,284.000 56.180,284.000 56.400 C 284.000 56.620,284.265 56.800,284.588 56.800 C 286.438 56.800,294.800 63.316,294.800 64.758 C 294.800 64.964,294.937 65.193,295.104 65.267 C 295.271 65.340,296.206 67.020,297.183 69.000 C 299.390 73.476,300.280 74.800,301.081 74.800 C 301.783 74.800,303.599 72.864,303.600 72.114 C 303.600 71.847,304.050 70.812,304.600 69.814 C 305.150 68.816,306.070 67.145,306.644 66.100 C 308.888 62.019,314.602 57.458,317.600 57.354 C 321.081 57.234,324.000 55.173,324.000 52.835 C 324.000 51.882,322.004 49.605,321.157 49.591 C 320.851 49.586,320.150 49.230,319.600 48.800 C 319.050 48.370,318.195 48.014,317.700 48.009 C 317.205 48.004,316.800 47.820,316.800 47.600 C 316.800 47.380,316.480 47.200,316.088 47.200 C 315.697 47.200,315.117 46.840,314.800 46.400 C 314.483 45.960,314.022 45.600,313.775 45.600 C 313.529 45.600,312.470 44.790,311.422 43.800 C 310.374 42.810,309.355 42.000,309.158 42.000 C 308.961 42.000,308.800 41.640,308.800 41.200 C 308.800 40.760,308.652 40.400,308.471 40.400 C 308.290 40.400,307.464 39.005,306.635 37.300 C 305.807 35.595,304.779 33.480,304.351 32.600 C 303.402 30.646,300.000 28.926,300.000 30.400 M84.710 97.481 C 84.353 97.876,83.120 100.090,81.970 102.400 C 78.988 108.388,75.924 111.359,69.498 114.489 C 62.884 117.712,62.898 118.732,69.600 121.891 C 75.971 124.895,79.032 127.935,82.164 134.370 C 85.625 141.480,86.474 141.461,89.985 134.200 C 92.934 128.101,96.040 124.981,102.007 122.121 C 109.133 118.707,109.160 117.725,102.223 114.259 C 95.720 111.009,93.218 108.494,89.830 101.800 C 87.226 96.656,86.220 95.807,84.710 97.481 " stroke="none" fill="#fabb0f" fill-rule="evenodd"></path></g></svg>